<?xml version="1.0" encoding="UTF-8"?>
<!DOCTYPE svg PUBLIC "-//W3C//DTD SVG 1.1//EN" "http://www.w3.org/Graphics/SVG/1.1/DTD/svg11.dtd">
<!-- Creator: CorelDRAW 2017 -->
<svg xmlns="http://www.w3.org/2000/svg" xml:space="preserve" width="90mm" height="80mm" version="1.1" style="shape-rendering:geometricPrecision; text-rendering:geometricPrecision; image-rendering:optimizeQuality; fill-rule:evenodd; clip-rule:evenodd"
viewBox="0 0 9000 8000"
 xmlns:xlink="http://www.w3.org/1999/xlink">
 <defs>
  <style type="text/css">
   <![CDATA[
    .fil0 {fill:#B80B0B}
   ]]>
  </style>
 </defs>
 <g id="Capa_x0020_1">
  <metadata id="CorelCorpID_0Corel-Layer"/>
  <g id="_2620221775712">
   <path class="fil0" d="M3590 3255c-113,99 -206,122 -305,220 -90,89 -155,227 -255,318 -726,-711 -1115,-244 -1275,-412 -108,-127 -13,-174 23,-300 -584,97 -1102,648 -1296,1174 -430,1165 481,2458 1604,2545 190,15 459,-41 597,46 61,38 95,86 164,141 937,738 2288,716 3229,22 450,-332 82,-170 740,-203 1238,-63 2123,-1356 1708,-2525 -193,-545 -809,-1188 -1299,-1185 33,138 96,149 28,295 -120,71 -542,-26 -768,43 -287,88 -370,242 -549,356 -68,-71 -99,-162 -269,-333 -163,-164 -262,-76 -278,-334 -25,-404 -175,-645 -454,-792 -515,-270 -1322,-104 -1345,925zm428 -44l951 8c6,-320 -102,-609 -484,-599 -337,9 -486,244 -467,591zm-810 3489c433,349 1300,-65 1612,-272 395,-263 810,-665 1087,-1040 441,-596 428,-1203 1015,-1025 239,72 441,362 306,690 -155,377 -416,284 -753,268 -359,646 -1239,1517 -1914,1769 788,40 1607,-679 1877,-1133 552,-17 736,28 1046,-309 203,-220 381,-625 275,-1041 -184,-726 -1109,-1075 -1593,-411 -289,397 -179,809 -1120,1616 -227,195 -509,397 -803,548 -574,294 -883,266 -1036,340zm942 -1216c-398,319 -1132,539 -1643,119 -60,-50 -173,-183 -227,-212 -203,-109 -396,-21 -523,-357 -203,-538 436,-921 811,-541 333,338 -292,891 851,893 -50,-147 -251,-328 -353,-548 -93,-200 -129,-451 -254,-624 -680,-940 -2011,67 -1493,1156 225,472 565,609 1204,581 125,184 62,255 405,280 1204,90 3414,-1750 2431,-2503 -173,-132 -316,-94 -572,-95 -371,-1 -979,-73 -1211,131 -249,219 -264,695 -62,998 99,149 199,251 312,364 147,147 293,228 324,356z"/>
   <path class="fil0" d="M2808 1223c-291,296 -795,1154 -673,1781 761,41 557,181 834,212 -11,-645 45,-917 369,-1308 576,-694 1634,-798 2381,-24 408,423 357,632 397,1326 254,-33 150,-186 821,-209 200,-594 -386,-1423 -610,-1690 -949,-1130 -2532,-1093 -3518,-88z"/>
   <path class="fil0" d="M4353 5045l473 13c-2,-157 -36,-242 -45,-357 -16,-188 58,-163 111,-296 87,-221 -104,-421 -307,-419 -222,2 -392,222 -279,458 57,119 111,92 95,249 -11,107 -50,230 -48,352z"/>
  </g>
 </g>
</svg>
