<svg xmlns="http://www.w3.org/2000/svg" xmlns:xlink="http://www.w3.org/1999/xlink" xmlns:lucid="lucid" width="462" height="1182"><g transform="translate(1351 441)" lucid:page-tab-id="0_0"><path d="M-1500-500h1000v1500h-1000z" fill="#fff"/><path d="M-1080-420c22.1 0 40 17.9 40 40s-17.9 40-40 40h-80c-22.1 0-40-17.9-40-40s17.9-40 40-40z" stroke="#3a414a" stroke-width="2" fill="#fff"/><use xlink:href="#a" transform="matrix(1,0,0,1,-1195,-415) translate(49.1358024691358 39.65277777777778)"/><path d="M-1120-338v78.75" stroke="#5e5e5e" stroke-width="2" fill="none"/><path d="M-1119.03-337.97h-1.94V-339h1.94z" stroke="#5e5e5e" stroke-width=".05" fill="#5e5e5e"/><path d="M-1120-244l-4.63-14.25h9.27z" stroke="#5e5e5e" stroke-width="2" fill="#5e5e5e"/><path d="M-1230-233.75a6 6 0 0 1 6-6h208a6 6 0 0 1 6 6v108a6 6 0 0 1-6 6h-208a6 6 0 0 1-6-6z" stroke="#3a414a" stroke-width="2" fill="#fff"/><use xlink:href="#b" transform="matrix(1,0,0,1,-1218,-227.74999999998352) translate(17.7511111111111 53.480000000000004)"/><use xlink:href="#c" transform="matrix(1,0,0,1,-1218,-227.74999999998352) translate(121.36 53.480000000000004)"/><path d="M-1120-117.75v58.25" stroke="#5e5e5e" stroke-width="2" fill="none"/><path d="M-1119.03-117.72h-1.94v-1.03h1.94z" stroke="#5e5e5e" stroke-width=".05" fill="#5e5e5e"/><path d="M-1120-44.24l-4.63-14.26h9.27z" stroke="#5e5e5e" stroke-width="2" fill="#5e5e5e"/><path d="M-1240-34a6 6 0 0 1 6-6h228a6 6 0 0 1 6 6V74a6 6 0 0 1-6 6h-228a6 6 0 0 1-6-6z" stroke="#3a414a" stroke-width="2" fill="#fff"/><use xlink:href="#d" transform="matrix(1,0,0,1,-1228,-28) translate(8.802469135802468 53.77777777777778)"/><use xlink:href="#e" transform="matrix(1,0,0,1,-1228,-28) translate(93.86419753086419 53.77777777777778)"/><use xlink:href="#f" transform="matrix(1,0,0,1,-1228,-28) translate(142.01234567901236 53.77777777777778)"/><use xlink:href="#g" transform="matrix(1,0,0,1,-1228,-28) translate(165.4074074074074 53.77777777777778)"/><path d="M-1120 82v58.25" stroke="#5e5e5e" stroke-width="2" fill="none"/><path d="M-1119.03 82.03h-1.94V81h1.94z" stroke="#5e5e5e" stroke-width=".05" fill="#5e5e5e"/><path d="M-1120 155.5l-4.63-14.25h9.27z" stroke="#5e5e5e" stroke-width="2" fill="#5e5e5e"/><path d="M-1330 165.75a6 6 0 0 1 6-6h408a6 6 0 0 1 6 6v165.6a6 6 0 0 1-6 6h-408a6 6 0 0 1-6-6z" stroke="#3a414a" stroke-width="2" fill="#fff"/><use xlink:href="#h" transform="matrix(1,0,0,1,-1318,171.74999999998352) translate(0 83.0425)"/><use xlink:href="#i" transform="matrix(1,0,0,1,-1318,171.74999999998352) translate(75.23555555555555 83.0425)"/><use xlink:href="#j" transform="matrix(1,0,0,1,-1318,171.74999999998352) translate(139.23555555555555 83.0425)"/><use xlink:href="#k" transform="matrix(1,0,0,1,-1318,171.74999999998352) translate(234.38222222222223 83.0425)"/><use xlink:href="#l" transform="matrix(1,0,0,1,-1318,171.74999999998352) translate(305.4222222222222 83.0425)"/><use xlink:href="#m" transform="matrix(1,0,0,1,-1318,171.74999999998352) translate(332.37333333333333 83.0425)"/><path d="M-1120 339.35v58.25" stroke="#5e5e5e" stroke-width="2" fill="none"/><path d="M-1119.03 339.38h-1.94v-1.03h1.94z" stroke="#5e5e5e" stroke-width=".05" fill="#5e5e5e"/><path d="M-1120 412.86l-4.63-14.26h9.27z" stroke="#5e5e5e" stroke-width="2" fill="#5e5e5e"/><path d="M-1290 423.1a6 6 0 0 1 6-6h328a6 6 0 0 1 6 6v108a6 6 0 0 1-6 6h-328a6 6 0 0 1-6-6z" stroke="#3a414a" stroke-width="2" fill="#fff"/><g><use xlink:href="#n" transform="matrix(1,0,0,1,-1278,429.0999999999671) translate(32.19753086419753 53.77777777777778)"/><use xlink:href="#o" transform="matrix(1,0,0,1,-1278,429.0999999999671) translate(96.20987654320987 53.77777777777778)"/><use xlink:href="#e" transform="matrix(1,0,0,1,-1278,429.0999999999671) translate(119.60493827160494 53.77777777777778)"/><use xlink:href="#p" transform="matrix(1,0,0,1,-1278,429.0999999999671) translate(167.75308641975306 53.77777777777778)"/><use xlink:href="#q" transform="matrix(1,0,0,1,-1278,429.0999999999671) translate(198.61728395061726 53.77777777777778)"/><use xlink:href="#r" transform="matrix(1,0,0,1,-1278,429.0999999999671) translate(241.82716049382714 53.77777777777778)"/></g><path d="M-1120 539.1v81.4" stroke="#5e5e5e" stroke-width="2" fill="none"/><path d="M-1119.03 539.13h-1.94v-1.03h1.94z" stroke="#5e5e5e" stroke-width=".05" fill="#5e5e5e"/><path d="M-1120 635.76l-4.63-14.26h9.27z" stroke="#5e5e5e" stroke-width="2" fill="#5e5e5e"/><path d="M-1080 640c22.1 0 40 17.9 40 40s-17.9 40-40 40h-80c-22.1 0-40-17.9-40-40s17.9-40 40-40z" stroke="#3a414a" stroke-width="2" fill="#fff"/><g><use xlink:href="#s" transform="matrix(1,0,0,1,-1195,645) translate(59.62962962962963 39.65277777777778)"/></g><defs><path d="M33 0v-248h34V0H33" id="t"/><path d="M117-194c89-4 53 116 60 194h-32v-121c0-31-8-49-39-48C34-167 62-67 57 0H25l-1-190h30c1 10-1 24 2 32 11-22 29-35 61-36" id="u"/><path d="M24-231v-30h32v30H24zM24 0v-190h32V0H24" id="v"/><path d="M96-169c-40 0-48 33-48 73s9 75 48 75c24 0 41-14 43-38l32 2c-6 37-31 61-74 61-59 0-76-41-82-99-10-93 101-131 147-64 4 7 5 14 7 22l-32 3c-4-21-16-35-41-35" id="w"/><path d="M100-194c62-1 85 37 85 99 1 63-27 99-86 99S16-35 15-95c0-66 28-99 85-99zM99-20c44 1 53-31 53-75 0-43-8-75-51-75s-53 32-53 75 10 74 51 75" id="x"/><g id="a"><use transform="matrix(0.06172839506172839,0,0,0.06172839506172839,0,0)" xlink:href="#t"/><use transform="matrix(0.06172839506172839,0,0,0.06172839506172839,6.172839506172839,0)" xlink:href="#u"/><use transform="matrix(0.06172839506172839,0,0,0.06172839506172839,18.51851851851852,0)" xlink:href="#v"/><use transform="matrix(0.06172839506172839,0,0,0.06172839506172839,23.395061728395063,0)" xlink:href="#w"/><use transform="matrix(0.06172839506172839,0,0,0.06172839506172839,34.50617283950618,0)" xlink:href="#v"/><use transform="matrix(0.06172839506172839,0,0,0.06172839506172839,39.38271604938272,0)" xlink:href="#x"/></g><path fill="#555" d="M212-179c-10-28-35-45-73-45-59 0-87 40-87 99 0 60 29 101 89 101 43 0 62-24 78-52l27 14C228-24 195 4 139 4 59 4 22-46 18-125c-6-104 99-153 187-111 19 9 31 26 39 46" id="y"/><path fill="#555" d="M141-36C126-15 110 5 73 4 37 3 15-17 15-53c-1-64 63-63 125-63 3-35-9-54-41-54-24 1-41 7-42 31l-33-3c5-37 33-52 76-52 45 0 72 20 72 64v82c-1 20 7 32 28 27v20c-31 9-61-2-59-35zM48-53c0 20 12 33 32 33 41-3 63-29 60-74-43 2-92-5-92 41" id="z"/><path fill="#555" d="M24 0v-261h32V0H24" id="A"/><path fill="#555" d="M100-194c63 0 86 42 84 106H49c0 40 14 67 53 68 26 1 43-12 49-29l28 8c-11 28-37 45-77 45C44 4 14-33 15-96c1-61 26-98 85-98zm52 81c6-60-76-77-97-28-3 7-6 17-6 28h103" id="B"/><path fill="#555" d="M117-194c89-4 53 116 60 194h-32v-121c0-31-8-49-39-48C34-167 62-67 57 0H25l-1-190h30c1 10-1 24 2 32 11-22 29-35 61-36" id="C"/><path fill="#555" d="M59-47c-2 24 18 29 38 22v24C64 9 27 4 27-40v-127H5v-23h24l9-43h21v43h35v23H59v120" id="D"/><path fill="#555" d="M114-163C36-179 61-72 57 0H25l-1-190h30c1 12-1 29 2 39 6-27 23-49 58-41v29" id="E"/><g id="b"><use transform="matrix(0.07111111111111111,0,0,0.07111111111111111,0,0)" xlink:href="#y"/><use transform="matrix(0.07111111111111111,0,0,0.07111111111111111,18.41777777777778,0)" xlink:href="#z"/><use transform="matrix(0.07111111111111111,0,0,0.07111111111111111,32.64,0)" xlink:href="#A"/><use transform="matrix(0.07111111111111111,0,0,0.07111111111111111,38.257777777777775,0)" xlink:href="#B"/><use transform="matrix(0.07111111111111111,0,0,0.07111111111111111,52.48,0)" xlink:href="#C"/><use transform="matrix(0.07111111111111111,0,0,0.07111111111111111,66.70222222222222,0)" xlink:href="#D"/><use transform="matrix(0.07111111111111111,0,0,0.07111111111111111,73.81333333333333,0)" xlink:href="#z"/><use transform="matrix(0.07111111111111111,0,0,0.07111111111111111,88.03555555555556,0)" xlink:href="#E"/></g><path fill="#555" d="M177-190C167-65 218 103 67 71c-23-6-38-20-44-43l32-5c15 47 100 32 89-28v-30C133-14 115 1 83 1 29 1 15-40 15-95c0-56 16-97 71-98 29-1 48 16 59 35 1-10 0-23 2-32h30zM94-22c36 0 50-32 50-73 0-42-14-75-50-75-39 0-46 34-46 75s6 73 46 73" id="F"/><path fill="#555" d="M84 4C-5 8 30-112 23-190h32v120c0 31 7 50 39 49 72-2 45-101 50-169h31l1 190h-30c-1-10 1-25-2-33-11 22-28 36-60 37" id="G"/><g id="c"><use transform="matrix(0.07111111111111111,0,0,0.07111111111111111,0,0)" xlink:href="#z"/><use transform="matrix(0.07111111111111111,0,0,0.07111111111111111,14.222222222222221,0)" xlink:href="#F"/><use transform="matrix(0.07111111111111111,0,0,0.07111111111111111,28.444444444444443,0)" xlink:href="#G"/><use transform="matrix(0.07111111111111111,0,0,0.07111111111111111,42.666666666666664,0)" xlink:href="#z"/></g><path d="M205 0l-28-72H64L36 0H1l101-248h38L239 0h-34zm-38-99l-47-123c-12 45-31 82-46 123h93" id="H"/><path d="M177-190C167-65 218 103 67 71c-23-6-38-20-44-43l32-5c15 47 100 32 89-28v-30C133-14 115 1 83 1 29 1 15-40 15-95c0-56 16-97 71-98 29-1 48 16 59 35 1-10 0-23 2-32h30zM94-22c36 0 50-32 50-73 0-42-14-75-50-75-39 0-46 34-46 75s6 73 46 73" id="I"/><path d="M114-163C36-179 61-72 57 0H25l-1-190h30c1 12-1 29 2 39 6-27 23-49 58-41v29" id="J"/><path d="M100-194c63 0 86 42 84 106H49c0 40 14 67 53 68 26 1 43-12 49-29l28 8c-11 28-37 45-77 45C44 4 14-33 15-96c1-61 26-98 85-98zm52 81c6-60-76-77-97-28-3 7-6 17-6 28h103" id="K"/><path d="M141-36C126-15 110 5 73 4 37 3 15-17 15-53c-1-64 63-63 125-63 3-35-9-54-41-54-24 1-41 7-42 31l-33-3c5-37 33-52 76-52 45 0 72 20 72 64v82c-1 20 7 32 28 27v20c-31 9-61-2-59-35zM48-53c0 20 12 33 32 33 41-3 63-29 60-74-43 2-92-5-92 41" id="L"/><g id="d"><use transform="matrix(0.06172839506172839,0,0,0.06172839506172839,0,0)" xlink:href="#H"/><use transform="matrix(0.06172839506172839,0,0,0.06172839506172839,14.814814814814813,0)" xlink:href="#I"/><use transform="matrix(0.06172839506172839,0,0,0.06172839506172839,27.160493827160494,0)" xlink:href="#J"/><use transform="matrix(0.06172839506172839,0,0,0.06172839506172839,34.50617283950617,0)" xlink:href="#K"/><use transform="matrix(0.06172839506172839,0,0,0.06172839506172839,46.85185185185185,0)" xlink:href="#I"/><use transform="matrix(0.06172839506172839,0,0,0.06172839506172839,59.197530864197525,0)" xlink:href="#L"/><use transform="matrix(0.06172839506172839,0,0,0.06172839506172839,71.5432098765432,0)" xlink:href="#J"/></g><path d="M101-234c-31-9-42 10-38 44h38v23H63V0H32v-167H5v-23h27c-7-52 17-82 69-68v24" id="M"/><path d="M100-194c63 0 86 42 84 106H49c0 40 14 67 53 68 26 1 43-12 49-29l28 8c-11 28-37 45-77 45C44 4 14-33 15-96c1-61 26-98 85-98zm52 81c6-60-76-77-97-28-3 7-6 17-6 28h103zm-74-98c8-23 27-35 38-54h36v5l-58 49H78" id="N"/><g id="e"><use transform="matrix(0.06172839506172839,0,0,0.06172839506172839,0,0)" xlink:href="#w"/><use transform="matrix(0.06172839506172839,0,0,0.06172839506172839,11.11111111111111,0)" xlink:href="#L"/><use transform="matrix(0.06172839506172839,0,0,0.06172839506172839,23.45679012345679,0)" xlink:href="#M"/><use transform="matrix(0.06172839506172839,0,0,0.06172839506172839,29.62962962962963,0)" xlink:href="#N"/></g><path d="M24 0v-261h32V0H24" id="O"/><g id="f"><use transform="matrix(0.06172839506172839,0,0,0.06172839506172839,0,0)" xlink:href="#L"/><use transform="matrix(0.06172839506172839,0,0,0.06172839506172839,12.345679012345679,0)" xlink:href="#O"/></g><path d="M59-47c-2 24 18 29 38 22v24C64 9 27 4 27-40v-127H5v-23h24l9-43h21v43h35v23H59v120" id="P"/><g id="g"><use transform="matrix(0.06172839506172839,0,0,0.06172839506172839,0,0)" xlink:href="#M"/><use transform="matrix(0.06172839506172839,0,0,0.06172839506172839,6.172839506172839,0)" xlink:href="#v"/><use transform="matrix(0.06172839506172839,0,0,0.06172839506172839,11.049382716049383,0)" xlink:href="#O"/><use transform="matrix(0.06172839506172839,0,0,0.06172839506172839,15.925925925925926,0)" xlink:href="#P"/><use transform="matrix(0.06172839506172839,0,0,0.06172839506172839,22.098765432098766,0)" xlink:href="#J"/><use transform="matrix(0.06172839506172839,0,0,0.06172839506172839,29.444444444444443,0)" xlink:href="#x"/></g><path fill="#555" d="M137 0h-34L2-248h35l83 218 83-218h36" id="Q"/><g id="h"><use transform="matrix(0.07111111111111111,0,0,0.07111111111111111,0,0)" xlink:href="#Q"/><use transform="matrix(0.07111111111111111,0,0,0.07111111111111111,15.644444444444444,0)" xlink:href="#B"/><use transform="matrix(0.07111111111111111,0,0,0.07111111111111111,29.866666666666667,0)" xlink:href="#E"/><use transform="matrix(0.07111111111111111,0,0,0.07111111111111111,38.32888888888889,0)" xlink:href="#D"/><use transform="matrix(0.07111111111111111,0,0,0.07111111111111111,45.44,0)" xlink:href="#B"/><use transform="matrix(0.07111111111111111,0,0,0.07111111111111111,59.66222222222222,0)" xlink:href="#E"/></g><g id="i"><use transform="matrix(0.07111111111111111,0,0,0.07111111111111111,0,0)" xlink:href="#z"/><use transform="matrix(0.07111111111111111,0,0,0.07111111111111111,14.222222222222221,0)" xlink:href="#F"/><use transform="matrix(0.07111111111111111,0,0,0.07111111111111111,28.444444444444443,0)" xlink:href="#G"/><use transform="matrix(0.07111111111111111,0,0,0.07111111111111111,42.666666666666664,0)" xlink:href="#z"/></g><path fill="#555" d="M96-169c-40 0-48 33-48 73s9 75 48 75c24 0 41-14 43-38l32 2c-6 37-31 61-74 61-59 0-76-41-82-99-10-93 101-131 147-64 4 7 5 14 7 22l-32 3c-4-21-16-35-41-35" id="R"/><path fill="#555" d="M24-231v-30h32v30H24zM24 0v-190h32V0H24" id="S"/><g id="j"><use transform="matrix(0.07111111111111111,0,0,0.07111111111111111,0,0)" xlink:href="#R"/><use transform="matrix(0.07111111111111111,0,0,0.07111111111111111,12.8,0)" xlink:href="#z"/><use transform="matrix(0.07111111111111111,0,0,0.07111111111111111,27.022222222222222,0)" xlink:href="#A"/><use transform="matrix(0.07111111111111111,0,0,0.07111111111111111,32.64,0)" xlink:href="#S"/><use transform="matrix(0.07111111111111111,0,0,0.07111111111111111,38.257777777777775,0)" xlink:href="#B"/><use transform="matrix(0.07111111111111111,0,0,0.07111111111111111,52.48,0)" xlink:href="#C"/><use transform="matrix(0.07111111111111111,0,0,0.07111111111111111,66.70222222222222,0)" xlink:href="#D"/><use transform="matrix(0.07111111111111111,0,0,0.07111111111111111,73.81333333333333,0)" xlink:href="#B"/></g><path fill="#555" d="M135-143c-3-34-86-38-87 0 15 53 115 12 119 90S17 21 10-45l28-5c4 36 97 45 98 0-10-56-113-15-118-90-4-57 82-63 122-42 12 7 21 19 24 35" id="T"/><path fill="#555" d="M100-194c62-1 85 37 85 99 1 63-27 99-86 99S16-35 15-95c0-66 28-99 85-99zM99-20c44 1 53-31 53-75 0-43-8-75-51-75s-53 32-53 75 10 74 51 75" id="U"/><path fill="#555" d="M115-194c53 0 69 39 70 98 0 66-23 100-70 100C84 3 66-7 56-30L54 0H23l1-261h32v101c10-23 28-34 59-34zm-8 174c40 0 45-34 45-75 0-40-5-75-45-74-42 0-51 32-51 76 0 43 10 73 51 73" id="V"/><g id="k"><use transform="matrix(0.07111111111111111,0,0,0.07111111111111111,0,0)" xlink:href="#T"/><use transform="matrix(0.07111111111111111,0,0,0.07111111111111111,12.8,0)" xlink:href="#U"/><use transform="matrix(0.07111111111111111,0,0,0.07111111111111111,27.022222222222222,0)" xlink:href="#V"/><use transform="matrix(0.07111111111111111,0,0,0.07111111111111111,41.24444444444443,0)" xlink:href="#E"/><use transform="matrix(0.07111111111111111,0,0,0.07111111111111111,49.70666666666666,0)" xlink:href="#B"/></g><g id="l"><use transform="matrix(0.07111111111111111,0,0,0.07111111111111111,0,0)" xlink:href="#B"/><use transform="matrix(0.07111111111111111,0,0,0.07111111111111111,14.222222222222221,0)" xlink:href="#A"/></g><path fill="#555" d="M101-234c-31-9-42 10-38 44h38v23H63V0H32v-167H5v-23h27c-7-52 17-82 69-68v24" id="W"/><path fill="#555" d="M100-194c63 0 86 42 84 106H49c0 40 14 67 53 68 26 1 43-12 49-29l28 8c-11 28-37 45-77 45C44 4 14-33 15-96c1-61 26-98 85-98zm52 81c6-60-76-77-97-28-3 7-6 17-6 28h103zm-74-98c8-23 27-35 38-54h36v5l-58 49H78" id="X"/><g id="m"><use transform="matrix(0.07111111111111111,0,0,0.07111111111111111,0,0)" xlink:href="#R"/><use transform="matrix(0.07111111111111111,0,0,0.07111111111111111,12.8,0)" xlink:href="#z"/><use transform="matrix(0.07111111111111111,0,0,0.07111111111111111,27.022222222222222,0)" xlink:href="#W"/><use transform="matrix(0.07111111111111111,0,0,0.07111111111111111,34.13333333333333,0)" xlink:href="#X"/></g><path d="M185-189c-5-48-123-54-124 2 14 75 158 14 163 119 3 78-121 87-175 55-17-10-28-26-33-46l33-7c5 56 141 63 141-1 0-78-155-14-162-118-5-82 145-84 179-34 5 7 8 16 11 25" id="Y"/><path d="M108 0H70L1-190h34L89-25l56-165h34" id="Z"/><g id="n"><use transform="matrix(0.06172839506172839,0,0,0.06172839506172839,0,0)" xlink:href="#Y"/><use transform="matrix(0.06172839506172839,0,0,0.06172839506172839,14.814814814814813,0)" xlink:href="#K"/><use transform="matrix(0.06172839506172839,0,0,0.06172839506172839,27.160493827160494,0)" xlink:href="#J"/><use transform="matrix(0.06172839506172839,0,0,0.06172839506172839,34.50617283950617,0)" xlink:href="#Z"/><use transform="matrix(0.06172839506172839,0,0,0.06172839506172839,45.61728395061728,0)" xlink:href="#v"/><use transform="matrix(0.06172839506172839,0,0,0.06172839506172839,50.49382716049382,0)" xlink:href="#J"/></g><g id="o"><use transform="matrix(0.06172839506172839,0,0,0.06172839506172839,0,0)" xlink:href="#K"/><use transform="matrix(0.06172839506172839,0,0,0.06172839506172839,12.345679012345679,0)" xlink:href="#O"/></g><g id="p"><use transform="matrix(0.06172839506172839,0,0,0.06172839506172839,0,0)" xlink:href="#K"/><use transform="matrix(0.06172839506172839,0,0,0.06172839506172839,12.345679012345679,0)" xlink:href="#u"/></g><path d="M84 4C-5 8 30-112 23-190h32v120c0 31 7 50 39 49 72-2 45-101 50-169h31l1 190h-30c-1-10 1-25-2-33-11 22-28 36-60 37" id="aa"/><g id="q"><use transform="matrix(0.06172839506172839,0,0,0.06172839506172839,0,0)" xlink:href="#aa"/><use transform="matrix(0.06172839506172839,0,0,0.06172839506172839,12.345679012345679,0)" xlink:href="#u"/><use transform="matrix(0.06172839506172839,0,0,0.06172839506172839,24.691358024691358,0)" xlink:href="#L"/></g><path d="M9 0v-24l116-142H16v-24h144v24L44-24h123V0H9" id="ab"/><g id="r"><use transform="matrix(0.06172839506172839,0,0,0.06172839506172839,0,0)" xlink:href="#P"/><use transform="matrix(0.06172839506172839,0,0,0.06172839506172839,6.172839506172839,0)" xlink:href="#L"/><use transform="matrix(0.06172839506172839,0,0,0.06172839506172839,18.51851851851852,0)" xlink:href="#ab"/><use transform="matrix(0.06172839506172839,0,0,0.06172839506172839,29.62962962962963,0)" xlink:href="#L"/></g><path d="M63-220v92h138v28H63V0H30v-248h175v28H63" id="ac"/><g id="s"><use transform="matrix(0.06172839506172839,0,0,0.06172839506172839,0,0)" xlink:href="#ac"/><use transform="matrix(0.06172839506172839,0,0,0.06172839506172839,13.518518518518517,0)" xlink:href="#v"/><use transform="matrix(0.06172839506172839,0,0,0.06172839506172839,18.39506172839506,0)" xlink:href="#u"/></g></defs></g></svg>