<?xml version="1.0" encoding="UTF-8"?>
<!DOCTYPE svg PUBLIC "-//W3C//DTD SVG 1.1//EN" "http://www.w3.org/Graphics/SVG/1.1/DTD/svg11.dtd">
<!-- Creator: CorelDRAW 2017 -->
<svg xmlns="http://www.w3.org/2000/svg" xml:space="preserve" width="215.9mm" height="279.4mm" version="1.1" style="shape-rendering:geometricPrecision; text-rendering:geometricPrecision; image-rendering:optimizeQuality; fill-rule:evenodd; clip-rule:evenodd"
viewBox="0 0 21590 27940"
 xmlns:xlink="http://www.w3.org/1999/xlink">
 <defs>
  <style type="text/css">
   <![CDATA[
    .str0 {stroke:#373435;stroke-width:100}
    .fil0 {fill:none}
    .fil2 {fill:none;fill-rule:nonzero}
    .fil1 {fill:#373435;fill-rule:nonzero}
   ]]>
  </style>
 </defs>
 <g id="Capa_x0020_1">
  <metadata id="CorelCorpID_0Corel-Layer"/>
  <ellipse class="fil0 str0" cx="11036" cy="2852" rx="3168" ry="1469"/>
  <polygon class="fil1" points="10401,3046 10235,3046 10235,2993 10279,2993 10279,2792 10235,2792 10235,2739 10401,2739 10401,2792 10357,2792 10357,2993 10401,2993 "/>
  <polygon id="1" class="fil1" points="10716,3046 10642,3046 10523,2832 10523,3046 10452,3046 10452,2739 10547,2739 10646,2915 10646,2739 10716,2739 "/>
  <polygon id="2" class="fil1" points="10932,3046 10766,3046 10766,2993 10810,2993 10810,2792 10766,2792 10766,2739 10932,2739 10932,2792 10888,2792 10888,2993 10932,2993 "/>
  <path id="3" class="fil1" d="M11116 3052c-46,0 -83,-14 -110,-42 -27,-28 -41,-67 -41,-118 0,-49 14,-88 41,-117 27,-29 64,-44 110,-44 12,0 23,1 33,2 10,1 19,3 28,6 7,2 15,5 23,9 8,4 15,7 20,9l0 73 -8 0c-4,-3 -8,-7 -14,-12 -6,-5 -12,-9 -19,-13 -7,-4 -15,-8 -24,-11 -9,-3 -18,-5 -27,-5 -11,0 -21,2 -31,5 -9,3 -18,10 -27,18 -8,8 -14,18 -19,32 -5,13 -7,29 -7,47 0,19 3,35 8,48 5,13 12,24 20,31 8,8 17,13 27,17 10,3 20,5 29,5 10,0 20,-2 29,-5 9,-3 17,-7 23,-11 7,-4 13,-8 18,-13 5,-4 10,-8 14,-12l7 0 0 72c-6,3 -12,6 -20,9 -7,3 -15,6 -23,9 -10,3 -19,5 -27,7 -8,1 -20,2 -35,2z"/>
  <polygon id="4" class="fil1" points="11419,3046 11253,3046 11253,2993 11297,2993 11297,2792 11253,2792 11253,2739 11419,2739 11419,2792 11375,2792 11375,2993 11419,2993 "/>
  <path id="5" class="fil1" d="M11750 2893c0,50 -13,89 -40,117 -27,29 -63,43 -109,43 -46,0 -83,-14 -109,-43 -26,-29 -40,-68 -40,-117 0,-49 13,-88 40,-117 26,-29 63,-43 109,-43 46,0 83,14 109,43 27,29 40,68 40,117zm-80 0c0,-18 -2,-34 -6,-47 -4,-13 -9,-23 -15,-32 -7,-8 -14,-14 -22,-18 -8,-4 -17,-6 -26,-6 -10,0 -18,2 -26,5 -8,3 -15,9 -22,18 -6,8 -12,19 -15,32 -4,13 -6,29 -6,47 0,19 2,35 6,47 4,12 9,23 15,31 7,9 14,15 23,18 8,4 17,6 26,6 9,0 18,-2 26,-6 9,-4 16,-10 22,-18 7,-9 12,-19 15,-31 4,-12 5,-28 5,-47z"/>
  <line class="fil0 str0" x1="11036" y1="4321" x2="11036" y2= "6124" />
  <polygon class="fil0 str0" points="11036,6037 12404,7027 13772,8016 12404,9005 11036,9995 9668,9005 8300,8016 9668,7027 "/>
  <path class="fil1" d="M9298 7869l-81 0 0 -55 81 0 0 55zm41 242c-9,4 -22,8 -39,12 -17,4 -35,6 -55,6 -17,0 -33,-2 -46,-6 -13,-4 -25,-10 -34,-17 -9,-7 -16,-16 -21,-26 -5,-10 -7,-21 -7,-33 0,-14 2,-26 6,-37 4,-11 10,-20 17,-28 7,-8 16,-15 26,-21 10,-6 22,-12 34,-17l0 -47 71 0 0 69c-8,2 -16,5 -26,9 -9,4 -18,8 -25,13 -8,5 -14,12 -19,19 -5,7 -7,16 -7,25 0,14 4,24 13,30 9,6 21,9 36,9 12,0 24,-3 37,-8 13,-5 23,-10 31,-15l6 0 0 62z"/>
  <polygon id="1" class="fil1" points="9394,8122 9394,7814 9602,7814 9602,7873 9471,7873 9471,7927 9592,7927 9592,7986 9471,7986 9471,8063 9602,8063 9602,8122 "/>
  <path id="2" class="fil1" d="M9721 8128c-17,0 -33,-2 -48,-6 -15,-4 -28,-8 -38,-13l0 -61 6 0c3,3 7,6 12,9 4,3 11,6 18,10 7,3 14,6 23,8 8,2 18,3 28,3 10,0 19,-2 27,-5 8,-3 12,-8 12,-15 0,-5 -2,-9 -5,-12 -4,-3 -11,-5 -21,-8 -6,-1 -12,-3 -21,-4 -8,-2 -16,-3 -22,-6 -18,-6 -32,-14 -41,-25 -9,-11 -14,-26 -14,-44 0,-10 2,-20 7,-29 5,-9 12,-17 21,-24 9,-7 21,-13 34,-17 14,-4 29,-6 46,-6 16,0 31,2 45,5 14,3 25,7 35,12l0 59 -6 0c-2,-2 -6,-5 -12,-8 -5,-3 -11,-6 -16,-8 -6,-3 -13,-5 -20,-7 -7,-2 -15,-3 -23,-3 -10,0 -19,2 -27,5 -7,4 -11,8 -11,14 0,5 2,9 5,12 4,3 11,6 23,9 6,1 13,3 21,4 8,1 16,3 23,6 17,5 29,13 38,24 9,10 13,24 13,41 0,11 -3,21 -8,31 -5,10 -12,18 -22,25 -10,7 -22,13 -35,17 -13,4 -30,6 -48,6z"/>
  <path id="3" class="fil1" d="M9957 8127c-29,0 -51,-6 -64,-18 -13,-12 -20,-32 -20,-60l0 -109 -28 0 0 -50 28 0 0 -66 72 0 0 66 70 0 0 50 -70 0 0 82c0,8 0,15 0,21 0,6 1,12 3,16 2,5 5,9 10,12 5,3 12,4 21,4 4,0 9,-1 15,-3 6,-2 11,-3 13,-5l6 0 0 51c-8,2 -16,4 -25,5 -9,1 -20,2 -33,2z"/>
  <path id="4" class="fil1" d="M10172 8061l0 -49c-12,1 -22,2 -29,3 -8,1 -15,3 -22,5 -6,2 -11,6 -15,10 -3,5 -5,11 -5,18 0,11 3,18 9,23 6,4 14,6 26,6 6,0 13,-1 19,-4 7,-3 12,-7 18,-12zm0 36c-5,4 -9,8 -13,11 -4,3 -9,7 -16,10 -6,3 -13,6 -19,7 -6,2 -15,3 -26,3 -20,0 -37,-7 -51,-21 -14,-14 -20,-31 -20,-52 0,-17 3,-31 10,-42 7,-11 17,-19 30,-25 13,-6 29,-11 47,-13 18,-2 38,-4 58,-6l0 -1c0,-13 -5,-22 -14,-27 -9,-5 -23,-7 -42,-7 -9,0 -18,2 -30,5 -11,3 -23,7 -33,12l-6 0 0 -56c7,-2 19,-5 35,-7 16,-3 32,-4 48,-4 40,0 69,7 87,20 18,13 27,34 27,61l0 158 -72 0 0 -25zm35 -322l-62 81 -49 0 43 -81 69 0z"/>
  <polygon id="5" class="fil1" points="10631,8122 10426,8122 10426,7814 10503,7814 10503,8063 10631,8063 "/>
  <polygon id="6" class="fil1" points="10736,8122 10664,8122 10664,7800 10736,7800 "/>
  <path id="7" class="fil1" d="M11015 8006c0,38 -10,68 -31,90 -21,22 -50,33 -89,33 -38,0 -67,-11 -88,-33 -21,-22 -32,-52 -32,-90 0,-39 11,-69 32,-91 21,-22 51,-33 88,-33 38,0 68,11 89,33 21,22 31,52 31,90zm-74 0c0,-14 -1,-25 -3,-34 -2,-9 -5,-16 -9,-22 -4,-6 -9,-10 -15,-12 -5,-2 -12,-3 -18,-3 -6,0 -12,1 -18,3 -5,2 -10,6 -15,11 -4,5 -7,13 -10,22 -2,9 -4,21 -4,35 0,14 1,26 4,34 2,9 5,16 9,21 4,5 9,9 15,12 6,2 12,4 19,4 6,0 12,-1 18,-4 6,-2 11,-6 14,-11 4,-6 8,-13 10,-21 2,-8 3,-20 3,-35z"/>
  <polygon id="8" class="fil1" points="11270,7890 11187,8122 11108,8122 11025,7890 11101,7890 11149,8044 11196,7890 "/>
  <path id="9" class="fil1" d="M11370 8122l-72 0 0 -232 72 0 0 232zm2 -265l-77 0 0 -56 77 0 0 56z"/>
  <path id="10" class="fil1" d="M11545 8128c-44,0 -78,-10 -101,-31 -23,-21 -35,-51 -35,-90 0,-38 11,-68 33,-91 22,-23 52,-34 92,-34 36,0 62,10 80,29 18,19 27,47 27,82l0 26 -159 0c1,11 3,20 7,27 4,7 9,13 15,17 6,4 13,7 22,9 8,2 17,3 27,3 8,0 17,-1 25,-3 8,-2 16,-4 22,-7 6,-3 11,-6 16,-9 5,-3 9,-6 12,-8l8 0 0 60c-6,2 -11,5 -16,6 -5,2 -12,4 -20,6 -8,2 -16,4 -24,5 -8,1 -19,2 -31,2zm24 -152c0,-15 -4,-27 -11,-35 -7,-8 -17,-12 -31,-12 -14,0 -25,4 -33,13 -8,8 -12,20 -13,35l88 0z"/>
  <path id="11" class="fil1" d="M11895 8122l-72 0 0 -115c0,-9 0,-19 -1,-28 -1,-9 -2,-16 -4,-21 -2,-5 -6,-9 -11,-11 -5,-2 -11,-3 -19,-3 -6,0 -12,1 -18,3 -6,2 -13,6 -20,11l0 164 -72 0 0 -232 72 0 0 26c12,-10 23,-18 35,-24 11,-6 24,-8 37,-8 24,0 42,7 54,22 13,15 19,37 19,65l0 151z"/>
  <path id="12" class="fil1" d="M12159 8122l-72 0 0 -24c-5,4 -10,8 -16,12 -6,4 -11,8 -16,10 -6,3 -12,5 -17,6 -6,1 -12,2 -20,2 -27,0 -48,-11 -63,-33 -15,-22 -23,-51 -23,-88 0,-20 3,-38 8,-53 5,-15 12,-28 22,-39 8,-10 19,-18 31,-24 12,-6 25,-9 38,-9 12,0 22,1 30,4 8,3 17,7 27,12l0 -99 72 0 0 322zm-72 -64l0 -115c-4,-2 -8,-3 -14,-4 -6,-1 -11,-2 -15,-2 -18,0 -31,6 -39,18 -9,12 -13,29 -13,51 0,23 4,40 11,50 7,10 18,15 34,15 6,0 13,-1 19,-4 6,-2 12,-6 18,-10z"/>
  <path id="13" class="fil1" d="M12437 8006c0,38 -10,68 -31,90 -21,22 -50,33 -89,33 -38,0 -67,-11 -88,-33 -21,-22 -32,-52 -32,-90 0,-39 11,-69 32,-91 21,-22 51,-33 88,-33 38,0 68,11 89,33 21,22 31,52 31,90zm-74 0c0,-14 -1,-25 -3,-34 -2,-9 -5,-16 -9,-22 -4,-6 -9,-10 -15,-12 -5,-2 -12,-3 -18,-3 -6,0 -12,1 -18,3 -5,2 -10,6 -15,11 -4,5 -7,13 -10,22 -2,9 -4,21 -4,35 0,14 1,26 4,34 2,9 5,16 9,21 4,5 9,9 15,12 6,2 12,4 19,4 6,0 12,-1 18,-4 6,-2 11,-6 14,-11 4,-6 8,-13 10,-21 2,-8 3,-20 3,-35z"/>
  <path id="14" class="fil1" d="M12672 7889c0,14 -2,26 -6,37 -4,11 -10,20 -17,28 -7,8 -16,15 -26,21 -10,6 -22,12 -34,17l0 47 -71 0 0 -69c8,-2 16,-5 26,-8 9,-4 18,-8 25,-13 8,-5 14,-12 19,-19 5,-7 7,-16 7,-25 0,-14 -4,-24 -13,-30 -9,-6 -21,-9 -36,-9 -12,0 -24,3 -37,8 -13,5 -23,10 -31,15l-6 0 0 -62c9,-4 22,-8 39,-12 17,-4 35,-6 55,-6 17,0 33,2 46,6 13,4 25,10 34,17 9,7 16,16 21,26 5,10 7,21 7,32zm-79 233l-81 0 0 -55 81 0 0 55z"/>
  <line class="fil0 str0" x1="8300" y1="8016" x2="4598" y2= "8016" />
  <line class="fil0 str0" x1="13772" y1="8016" x2="17457" y2= "8016" />
  <line class="fil0 str0" x1="4598" y1="8016" x2="4598" y2= "10853" />
  <line class="fil0 str0" x1="17457" y1="8016" x2="17457" y2= "10853" />
  <path class="fil1" d="M4489 11329c-24,0 -44,-2 -62,-7 -18,-5 -34,-10 -50,-17l0 -73 7 0c15,13 32,23 51,30 19,7 37,11 54,11 4,0 10,0 17,-1 7,-1 13,-2 17,-5 5,-2 10,-6 14,-10 4,-4 6,-10 6,-17 0,-8 -3,-14 -9,-19 -6,-5 -13,-8 -22,-11 -10,-3 -22,-5 -34,-8 -12,-2 -23,-6 -33,-9 -24,-8 -41,-20 -51,-34 -10,-14 -15,-32 -15,-53 0,-29 12,-52 37,-70 24,-18 55,-27 91,-27 18,0 37,2 55,6 18,4 34,9 49,15l0 70 -7 0c-11,-10 -25,-18 -42,-25 -16,-7 -33,-10 -51,-10 -7,0 -13,0 -18,1 -5,1 -11,3 -17,6 -5,2 -9,5 -12,10 -4,4 -5,9 -5,14 0,8 3,14 8,19 6,5 16,9 32,12 10,2 20,5 30,7 10,2 20,5 31,9 21,8 37,18 48,31 10,13 16,30 16,52 0,31 -12,55 -36,74 -24,19 -56,28 -97,28z"/>
  <path id="1" class="fil1" d="M4730 11323l-72 0 0 -232 72 0 0 232zm2 -265l-77 0 0 -56 77 0 0 56z"/>
  <polygon class="fil1" points="17430,11329 17356,11329 17237,11115 17237,11329 17166,11329 17166,11021 17261,11021 17360,11198 17360,11021 17430,11021 "/>
  <path id="1" class="fil1" d="M17711 11213c0,38 -10,68 -31,90 -21,22 -50,33 -89,33 -38,0 -67,-11 -88,-33 -21,-22 -32,-52 -32,-90 0,-39 11,-69 32,-91 21,-22 51,-33 88,-33 38,0 68,11 89,33 21,22 31,52 31,90zm-74 0c0,-14 -1,-25 -3,-34 -2,-9 -5,-16 -9,-22 -4,-6 -9,-10 -15,-12 -5,-2 -12,-3 -18,-3 -6,0 -12,1 -18,3 -5,2 -10,6 -15,11 -4,5 -7,13 -10,22 -2,9 -4,21 -4,35 0,14 1,26 4,34 2,9 5,16 9,21 4,5 9,9 15,12 6,2 12,4 19,4 6,0 12,-1 18,-4 6,-2 11,-6 14,-11 4,-6 8,-13 10,-21 2,-8 3,-20 3,-35z"/>
  <line class="fil0 str0" x1="4598" y1="11536" x2="4598" y2= "13488" />
  <line class="fil0 str0" x1="17457" y1="11483" x2="17457" y2= "13488" />
  <path class="fil2 str0" d="M15878 13488l4797 0 -1599 1370 -4797 0 1599 -1370zm2399 0m1599 685m-3198 685m-1599 -685"/>
  <path class="fil1" d="M16003 13909l-43 0 -51 -112 64 0 30 112zm-83 0l-42 0 -51 -112 64 0 30 112z"/>
  <polygon id="1" class="fil1" points="16292,14092 16224,14092 16115,13896 16115,14092 16050,14092 16050,13810 16137,13810 16228,13972 16228,13810 16292,13810 "/>
  <path id="2" class="fil1" d="M16550 13986c0,35 -10,63 -29,83 -19,20 -46,30 -81,30 -35,0 -62,-10 -81,-30 -19,-20 -29,-48 -29,-83 0,-35 10,-63 29,-83 19,-20 46,-30 81,-30 35,0 62,10 81,30 19,20 29,48 29,83zm-68 0c0,-13 -1,-23 -3,-31 -2,-8 -5,-15 -9,-20 -4,-5 -8,-9 -13,-11 -5,-2 -11,-3 -17,-3 -6,0 -11,1 -16,3 -5,2 -9,5 -13,10 -4,5 -7,12 -9,20 -2,9 -3,19 -3,32 0,13 1,23 3,31 2,8 5,14 8,19 4,5 8,8 13,11 5,2 11,3 18,3 5,0 11,-1 16,-3 6,-2 10,-6 13,-10 4,-5 7,-12 9,-20 2,-8 3,-18 3,-32z"/>
  <path id="3" class="fil1" d="M16808 14098c-40,0 -71,-10 -93,-29 -21,-19 -32,-47 -32,-82 0,-35 10,-62 30,-83 20,-21 48,-31 84,-31 33,0 57,9 74,26 16,18 25,43 25,75l0 24 -146 0c1,10 3,18 6,25 4,7 8,12 14,16 6,4 12,7 20,8 8,2 16,3 25,3 8,0 15,-1 23,-3 8,-2 14,-4 21,-7 5,-2 10,-5 15,-8 5,-3 8,-5 11,-8l7 0 0 55c-5,2 -10,4 -15,6 -5,2 -11,4 -19,6 -7,2 -15,3 -22,4 -8,1 -17,2 -28,2zm22 -139c0,-14 -4,-25 -10,-32 -6,-7 -16,-11 -28,-11 -13,0 -23,4 -31,12 -7,8 -11,18 -12,32l81 0z"/>
  <path id="4" class="fil1" d="M16994 14098c-16,0 -30,-2 -44,-5 -14,-3 -25,-7 -35,-12l0 -56 6 0c3,2 7,5 11,8 4,3 10,6 17,9 6,3 13,5 21,7 8,2 16,3 25,3 9,0 18,-1 25,-4 7,-3 11,-8 11,-14 0,-5 -2,-9 -5,-11 -3,-3 -10,-5 -19,-7 -5,-1 -11,-3 -19,-4 -8,-1 -15,-3 -21,-5 -17,-5 -29,-13 -38,-23 -8,-10 -13,-24 -13,-40 0,-10 2,-18 7,-27 4,-8 11,-16 19,-22 8,-6 19,-12 31,-15 12,-4 27,-6 42,-6 15,0 29,1 41,4 13,3 23,7 32,11l0 54 -5 0c-2,-2 -6,-4 -11,-7 -5,-3 -10,-6 -14,-8 -6,-3 -12,-5 -19,-6 -7,-2 -14,-2 -21,-2 -10,0 -18,2 -24,5 -7,3 -10,8 -10,13 0,5 2,9 5,11 3,3 10,6 21,8 6,1 12,3 20,4 7,1 14,3 21,5 15,5 27,12 35,22 8,10 12,22 12,38 0,10 -2,19 -7,28 -5,9 -11,17 -20,23 -9,7 -20,12 -32,16 -12,4 -27,6 -44,6z"/>
  <path id="5" class="fil1" d="M17442 14092l-66 0 0 -105c0,-9 0,-17 -1,-26 -1,-9 -2,-15 -4,-19 -2,-5 -6,-8 -10,-10 -4,-2 -10,-3 -17,-3 -6,0 -11,1 -17,3 -6,2 -12,5 -18,10l0 151 -66 0 0 -213 66 0 0 24c11,-9 21,-16 32,-22 10,-5 22,-8 34,-8 22,0 38,7 50,21 12,14 17,34 17,60l0 138z"/>
  <path id="6" class="fil1" d="M17600 14098c-40,0 -71,-10 -93,-29 -21,-19 -32,-47 -32,-82 0,-35 10,-62 30,-83 20,-21 48,-31 84,-31 33,0 57,9 74,26 16,18 25,43 25,75l0 24 -146 0c1,10 3,18 6,25 4,7 8,12 14,16 6,4 12,7 20,8 8,2 16,3 25,3 8,0 15,-1 23,-3 8,-2 14,-4 21,-7 5,-2 10,-5 15,-8 5,-3 8,-5 11,-8l7 0 0 55c-5,2 -10,4 -15,6 -5,2 -11,4 -19,6 -7,2 -15,3 -22,4 -8,1 -17,2 -28,2zm22 -139c0,-14 -4,-25 -10,-32 -6,-7 -16,-11 -28,-11 -13,0 -23,4 -31,12 -7,8 -11,18 -12,32l81 0z"/>
  <path id="7" class="fil1" d="M17826 14098c-18,0 -34,-2 -48,-7 -15,-4 -27,-11 -38,-20 -11,-9 -19,-21 -25,-35 -6,-14 -9,-30 -9,-49 0,-20 3,-38 10,-52 6,-14 15,-26 26,-35 11,-9 23,-15 37,-20 14,-4 29,-6 45,-6 12,0 23,1 35,4 12,3 24,7 35,13l0 57 -9 0c-3,-3 -6,-5 -10,-8 -4,-3 -8,-6 -13,-8 -5,-3 -10,-5 -16,-7 -6,-2 -13,-3 -20,-3 -17,0 -30,6 -39,18 -9,12 -14,28 -14,48 0,21 5,37 15,48 10,10 23,16 40,16 8,0 16,-1 22,-3 6,-2 12,-4 16,-7 4,-3 8,-5 11,-8 3,-3 6,-5 8,-8l9 0 0 57c-4,2 -8,4 -13,6 -5,2 -10,4 -15,5 -6,2 -12,3 -18,4 -6,1 -13,1 -22,1z"/>
  <path id="8" class="fil1" d="M18035 14098c-40,0 -71,-10 -93,-29 -21,-19 -32,-47 -32,-82 0,-35 10,-62 30,-83 20,-21 48,-31 84,-31 33,0 57,9 74,26 16,18 25,43 25,75l0 24 -146 0c1,10 3,18 6,25 4,7 8,12 14,16 6,4 12,7 20,8 8,2 16,3 25,3 8,0 15,-1 23,-3 8,-2 14,-4 21,-7 5,-2 10,-5 15,-8 5,-3 8,-5 11,-8l7 0 0 55c-5,2 -10,4 -15,6 -5,2 -11,4 -19,6 -7,2 -15,3 -22,4 -8,1 -17,2 -28,2zm22 -139c0,-14 -4,-25 -10,-32 -6,-7 -16,-11 -28,-11 -13,0 -23,4 -31,12 -7,8 -11,18 -12,32l81 0z"/>
  <path id="9" class="fil1" d="M18221 14098c-16,0 -30,-2 -44,-5 -14,-3 -25,-7 -35,-12l0 -56 6 0c3,2 7,5 11,8 4,3 10,6 17,9 6,3 13,5 21,7 8,2 16,3 25,3 9,0 18,-1 25,-4 7,-3 11,-8 11,-14 0,-5 -2,-9 -5,-11 -3,-3 -10,-5 -19,-7 -5,-1 -11,-3 -19,-4 -8,-1 -15,-3 -21,-5 -17,-5 -29,-13 -38,-23 -8,-10 -13,-24 -13,-40 0,-10 2,-18 7,-27 4,-8 11,-16 19,-22 8,-6 19,-12 31,-15 12,-4 27,-6 42,-6 15,0 29,1 41,4 13,3 23,7 32,11l0 54 -5 0c-2,-2 -6,-4 -11,-7 -5,-3 -10,-6 -14,-8 -6,-3 -12,-5 -19,-6 -7,-2 -14,-2 -21,-2 -10,0 -18,2 -24,5 -7,3 -10,8 -10,13 0,5 2,9 5,11 3,3 10,6 21,8 6,1 12,3 20,4 7,1 14,3 21,5 15,5 27,12 35,22 8,10 12,22 12,38 0,10 -2,19 -7,28 -5,9 -11,17 -20,23 -9,7 -20,12 -32,16 -12,4 -27,6 -44,6z"/>
  <path id="10" class="fil1" d="M18473 14037l0 -45c-11,1 -20,2 -27,3 -7,1 -14,2 -20,5 -6,2 -10,5 -13,9 -3,4 -5,10 -5,16 0,10 3,17 8,21 5,4 13,6 24,6 6,0 12,-1 18,-4 6,-3 11,-6 16,-11zm0 33c-5,4 -9,7 -12,10 -4,3 -8,6 -14,9 -6,3 -12,5 -17,7 -6,2 -13,2 -23,2 -19,0 -34,-6 -47,-19 -12,-13 -19,-29 -19,-48 0,-16 3,-29 9,-38 6,-10 15,-18 27,-23 12,-6 26,-10 43,-12 17,-2 34,-4 54,-5l0 -1c0,-12 -4,-20 -13,-24 -9,-4 -22,-7 -39,-7 -8,0 -17,1 -27,4 -10,3 -21,6 -31,11l-6 0 0 -51c7,-2 17,-4 32,-7 15,-3 29,-4 44,-4 37,0 63,6 80,18 17,12 25,31 25,56l0 145 -66 0 0 -23z"/>
  <path id="11" class="fil1" d="M18731 13943l-5 0c-3,-1 -6,-2 -11,-2 -5,0 -10,-1 -16,-1 -7,0 -14,1 -22,3 -8,2 -15,4 -22,7l0 142 -66 0 0 -213 66 0 0 30c3,-3 7,-6 13,-10 5,-4 10,-8 15,-10 5,-3 10,-5 17,-8 6,-2 12,-3 18,-3 2,0 5,0 7,0 3,0 5,0 7,1l0 63z"/>
  <path id="12" class="fil1" d="M18823 14092l-66 0 0 -213 66 0 0 213zm2 -243l-70 0 0 -52 70 0 0 52z"/>
  <path id="13" class="fil1" d="M19078 13986c0,35 -10,63 -29,83 -19,20 -46,30 -81,30 -35,0 -62,-10 -81,-30 -19,-20 -29,-48 -29,-83 0,-35 10,-63 29,-83 19,-20 46,-30 81,-30 35,0 62,10 81,30 19,20 29,48 29,83zm-68 0c0,-13 -1,-23 -3,-31 -2,-8 -5,-15 -9,-20 -4,-5 -8,-9 -13,-11 -5,-2 -11,-3 -17,-3 -6,0 -11,1 -16,3 -5,2 -9,5 -13,10 -4,5 -7,12 -9,20 -2,9 -3,19 -3,32 0,13 1,23 3,31 2,8 5,14 8,19 4,5 8,8 13,11 5,2 11,3 18,3 5,0 11,-1 16,-3 6,-2 10,-6 13,-10 4,-5 7,-12 9,-20 2,-8 3,-18 3,-32z"/>
  <path id="14" class="fil1" d="M16368 14567c-40,0 -71,-10 -93,-29 -21,-19 -32,-47 -32,-82 0,-35 10,-62 30,-83 20,-21 48,-31 84,-31 33,0 57,9 74,26 16,18 25,43 25,75l0 24 -146 0c1,10 3,18 6,25 4,7 8,12 14,16 6,4 12,7 20,8 8,2 16,3 25,3 8,0 15,-1 23,-3 8,-2 14,-4 21,-7 5,-2 10,-5 15,-8 5,-3 8,-5 11,-8l7 0 0 55c-5,2 -10,4 -15,6 -5,2 -11,4 -19,6 -7,2 -15,3 -22,4 -8,1 -17,2 -28,2zm22 -139c0,-14 -4,-25 -10,-32 -6,-7 -16,-11 -28,-11 -13,0 -23,4 -31,12 -7,8 -11,18 -12,32l81 0z"/>
  <polygon id="15" class="fil1" points="16555,14561 16489,14561 16489,14266 16555,14266 "/>
  <path id="16" class="fil1" d="M16929 14452c0,34 -9,61 -26,82 -17,21 -39,31 -64,31 -11,0 -20,-1 -28,-4 -8,-2 -16,-6 -25,-11l0 88 -66 0 0 -291 66 0 0 22c10,-8 20,-15 30,-20 10,-5 22,-8 35,-8 25,0 44,10 57,29 14,20 20,46 20,80zm-68 1c0,-21 -3,-36 -10,-45 -6,-9 -16,-14 -30,-14 -6,0 -12,1 -18,3 -6,2 -12,5 -17,9l0 107c4,2 7,3 12,3 4,1 9,1 15,1 16,0 28,-5 36,-16 8,-11 12,-26 12,-48z"/>
  <path id="17" class="fil1" d="M17081 14505l0 -45c-11,1 -20,2 -27,3 -7,1 -14,2 -20,5 -6,2 -10,5 -13,9 -3,4 -5,10 -5,16 0,10 3,17 8,21 5,4 13,6 24,6 6,0 12,-1 18,-4 6,-3 11,-6 16,-11zm0 33c-5,4 -9,7 -12,10 -4,3 -8,6 -14,9 -6,3 -12,5 -17,7 -6,2 -13,2 -23,2 -19,0 -34,-6 -47,-19 -12,-13 -19,-29 -19,-48 0,-16 3,-29 9,-38 6,-10 15,-18 27,-23 12,-6 26,-10 43,-12 17,-2 34,-4 54,-5l0 -1c0,-12 -4,-20 -13,-24 -9,-4 -22,-7 -39,-7 -8,0 -17,1 -27,4 -10,3 -21,6 -31,11l-6 0 0 -51c7,-2 17,-4 32,-7 15,-3 29,-4 44,-4 37,0 63,6 80,18 17,12 25,31 25,56l0 145 -66 0 0 -23z"/>
  <path id="18" class="fil1" d="M17339 14411l-5 0c-3,-1 -6,-2 -11,-2 -5,0 -10,-1 -16,-1 -7,0 -14,1 -22,3 -8,2 -15,4 -22,7l0 142 -66 0 0 -213 66 0 0 30c3,-3 7,-6 13,-10 5,-4 10,-8 15,-10 5,-3 10,-5 17,-8 6,-2 12,-3 18,-3 2,0 5,0 7,0 3,0 5,0 7,1l0 63z"/>
  <path id="19" class="fil1" d="M17482 14505l0 -45c-11,1 -20,2 -27,3 -7,1 -14,2 -20,5 -6,2 -10,5 -13,9 -3,4 -5,10 -5,16 0,10 3,17 8,21 5,4 13,6 24,6 6,0 12,-1 18,-4 6,-3 11,-6 16,-11zm0 33c-5,4 -9,7 -12,10 -4,3 -8,6 -14,9 -6,3 -12,5 -17,7 -6,2 -13,2 -23,2 -19,0 -34,-6 -47,-19 -12,-13 -19,-29 -19,-48 0,-16 3,-29 9,-38 6,-10 15,-18 27,-23 12,-6 26,-10 43,-12 17,-2 34,-4 54,-5l0 -1c0,-12 -4,-20 -13,-24 -9,-4 -22,-7 -39,-7 -8,0 -17,1 -27,4 -10,3 -21,6 -31,11l-6 0 0 -51c7,-2 17,-4 32,-7 15,-3 29,-4 44,-4 37,0 63,6 80,18 17,12 25,31 25,56l0 145 -66 0 0 -23z"/>
  <path id="20" class="fil1" d="M17724 14493l0 -97c-3,-1 -7,-3 -12,-4 -5,-1 -10,-1 -14,-1 -16,0 -28,5 -36,15 -8,10 -12,25 -12,43 0,9 1,17 2,23 1,6 3,12 7,17 3,5 7,8 12,11 5,2 12,4 20,4 6,0 12,-1 18,-3 6,-2 11,-5 16,-9zm66 43c0,20 -3,36 -9,50 -6,14 -14,25 -23,32 -10,8 -22,13 -36,17 -14,3 -29,5 -46,5 -14,0 -28,-1 -40,-3 -13,-2 -24,-4 -33,-6l0 -53 8 0c3,1 7,3 12,4 4,2 9,3 14,4 6,1 11,3 16,3 5,1 11,1 16,1 11,0 21,-1 28,-4 8,-2 13,-6 17,-10 4,-4 6,-10 8,-16 1,-6 2,-14 2,-23l0 -4c-8,7 -16,12 -26,16 -10,4 -20,6 -30,6 -28,0 -49,-9 -64,-27 -15,-18 -23,-45 -23,-82 0,-17 2,-32 7,-45 5,-13 11,-25 19,-34 8,-9 17,-16 29,-21 11,-5 23,-7 35,-7 11,0 21,1 29,4 9,3 16,6 24,11l2 -10 64 0 0 188z"/>
  <path id="21" class="fil1" d="M18039 14561l-66 0 0 -24c-12,10 -22,17 -32,22 -10,5 -21,8 -34,8 -21,0 -38,-7 -49,-20 -12,-13 -18,-33 -18,-60l0 -138 66 0 0 105c0,11 0,20 1,27 1,7 2,13 4,18 2,4 5,8 9,10 4,2 10,3 18,3 5,0 10,-1 17,-3 6,-2 12,-5 18,-9l0 -151 66 0 0 213z"/>
  <path id="22" class="fil1" d="M18207 14505l0 -45c-11,1 -20,2 -27,3 -7,1 -14,2 -20,5 -6,2 -10,5 -13,9 -3,4 -5,10 -5,16 0,10 3,17 8,21 5,4 13,6 24,6 6,0 12,-1 18,-4 6,-3 11,-6 16,-11zm0 33c-5,4 -9,7 -12,10 -4,3 -8,6 -14,9 -6,3 -12,5 -17,7 -6,2 -13,2 -23,2 -19,0 -34,-6 -47,-19 -12,-13 -19,-29 -19,-48 0,-16 3,-29 9,-38 6,-10 15,-18 27,-23 12,-6 26,-10 43,-12 17,-2 34,-4 54,-5l0 -1c0,-12 -4,-20 -13,-24 -9,-4 -22,-7 -39,-7 -8,0 -17,1 -27,4 -10,3 -21,6 -31,11l-6 0 0 -51c7,-2 17,-4 32,-7 15,-3 29,-4 44,-4 37,0 63,6 80,18 17,12 25,31 25,56l0 145 -66 0 0 -23z"/>
  <path id="23" class="fil1" d="M18387 14567c-16,0 -30,-2 -44,-5 -14,-3 -25,-7 -35,-12l0 -56 6 0c3,2 7,5 11,8 4,3 10,6 17,9 6,3 13,5 21,7 8,2 16,3 25,3 9,0 18,-1 25,-4 7,-3 11,-8 11,-14 0,-5 -2,-9 -5,-11 -3,-3 -10,-5 -19,-7 -5,-1 -11,-3 -19,-4 -8,-1 -15,-3 -21,-5 -17,-5 -29,-13 -38,-23 -8,-10 -13,-24 -13,-40 0,-10 2,-18 7,-27 4,-8 11,-16 19,-22 8,-6 19,-12 31,-15 12,-4 27,-6 42,-6 15,0 29,1 41,4 13,3 23,7 32,11l0 54 -5 0c-2,-2 -6,-4 -11,-7 -5,-3 -10,-6 -14,-8 -6,-3 -12,-5 -19,-6 -7,-2 -14,-2 -21,-2 -10,0 -18,2 -24,5 -7,3 -10,8 -10,13 0,5 2,9 5,11 3,3 10,6 21,8 6,1 12,3 20,4 7,1 14,3 21,5 15,5 27,12 35,22 8,10 12,22 12,38 0,10 -2,19 -7,28 -5,9 -11,17 -20,23 -9,7 -20,12 -32,16 -12,4 -27,6 -44,6z"/>
  <path id="24" class="fil1" d="M18691 14266l-51 112 -42 0 30 -112 64 0zm-83 0l-51 112 -42 0 30 -112 64 0z"/>
  <path class="fil2 str0" d="M2999 13526l4797 0 -1599 1370 -4797 0 1599 -1370zm2399 0m1599 685m-3198 685m-1599 -685"/>
  <path class="fil1" d="M3888 13947l-43 0 -51 -112 64 0 30 112zm-83 0l-42 0 -51 -112 64 0 30 112z"/>
  <polygon id="1" class="fil1" points="3989,14130 3989,13902 3906,13902 3906,13848 4143,13848 4143,13902 4060,13902 4060,14130 "/>
  <path id="2" class="fil1" d="M4373 14024c0,35 -10,63 -29,83 -19,20 -46,30 -81,30 -35,0 -62,-10 -81,-30 -19,-20 -29,-48 -29,-83 0,-35 10,-63 29,-83 19,-20 46,-30 81,-30 35,0 62,10 81,30 19,20 29,48 29,83zm-68 0c0,-13 -1,-23 -3,-31 -2,-8 -5,-15 -9,-20 -4,-5 -8,-9 -13,-11 -5,-2 -11,-3 -17,-3 -6,0 -11,1 -16,3 -5,2 -9,5 -13,10 -4,5 -7,12 -9,20 -2,9 -3,19 -3,32 0,13 1,23 3,31 2,8 5,14 8,19 4,5 8,8 13,11 5,2 11,3 18,3 5,0 11,-1 16,-3 6,-2 10,-6 13,-10 4,-5 7,-12 9,-20 2,-8 3,-18 3,-32z"/>
  <path id="3" class="fil1" d="M4662 14130l0 -106c0,-10 0,-19 -1,-27 0,-7 -1,-13 -3,-18 -2,-5 -5,-8 -9,-10 -4,-2 -10,-3 -17,-3 -5,0 -10,1 -15,3 -5,2 -10,5 -16,9l0 151 -66 0 0 -106c0,-10 0,-19 -1,-26 0,-7 -2,-13 -4,-18 -2,-5 -5,-8 -9,-10 -4,-2 -10,-3 -17,-3 -6,0 -11,1 -16,4 -5,3 -10,5 -15,9l0 151 -66 0 0 -213 66 0 0 24c11,-9 21,-16 31,-22 10,-5 20,-8 32,-8 13,0 24,3 34,9 10,6 17,15 23,28 13,-12 25,-21 36,-27 11,-6 23,-10 34,-10 10,0 19,2 27,5 8,3 14,8 20,14 6,7 10,15 13,24 3,9 4,22 4,37l0 138 -66 0z"/>
  <path id="4" class="fil1" d="M4895 14075l0 -45c-11,1 -20,2 -27,3 -7,1 -14,2 -20,5 -6,2 -10,5 -13,9 -3,4 -5,10 -5,16 0,10 3,17 8,21 5,4 13,6 24,6 6,0 12,-1 18,-4 6,-3 11,-6 16,-11zm0 33c-5,4 -9,7 -12,10 -4,3 -8,6 -14,9 -6,3 -12,5 -17,7 -6,2 -13,2 -23,2 -19,0 -34,-6 -47,-19 -12,-13 -19,-29 -19,-48 0,-16 3,-29 9,-38 6,-10 15,-18 27,-23 12,-6 26,-10 43,-12 17,-2 34,-4 54,-5l0 -1c0,-12 -4,-20 -13,-24 -9,-4 -22,-7 -39,-7 -8,0 -17,1 -27,4 -10,3 -21,6 -31,11l-6 0 0 -51c7,-2 17,-4 32,-7 15,-3 29,-4 44,-4 37,0 63,6 80,18 17,12 25,31 25,56l0 145 -66 0 0 -23z"/>
  <path id="5" class="fil1" d="M5233 14136c-40,0 -71,-10 -93,-29 -21,-19 -32,-47 -32,-82 0,-35 10,-62 30,-83 20,-21 48,-31 84,-31 33,0 57,9 74,26 16,18 25,43 25,75l0 24 -146 0c1,10 3,18 6,25 4,7 8,12 14,16 6,4 12,7 20,8 8,2 16,3 25,3 8,0 15,-1 23,-3 8,-2 14,-4 21,-7 5,-2 10,-5 15,-8 5,-3 8,-5 11,-8l7 0 0 55c-5,2 -10,4 -15,6 -5,2 -11,4 -19,6 -7,2 -15,3 -22,4 -8,1 -17,2 -28,2zm22 -139c0,-14 -4,-25 -10,-32 -6,-7 -16,-11 -28,-11 -13,0 -23,4 -31,12 -7,8 -11,18 -12,32l81 0z"/>
  <polygon id="6" class="fil1" points="5421,14130 5354,14130 5354,13835 5421,13835 "/>
  <path id="7" class="fil1" d="M3820 14490c0,34 -9,61 -26,82 -17,21 -39,31 -64,31 -11,0 -20,-1 -28,-4 -8,-2 -16,-6 -25,-11l0 88 -66 0 0 -291 66 0 0 22c10,-8 20,-15 30,-20 10,-5 22,-8 35,-8 25,0 44,10 57,29 14,20 20,46 20,80zm-68 1c0,-21 -3,-36 -10,-45 -6,-9 -16,-14 -30,-14 -6,0 -12,1 -18,3 -6,2 -12,5 -17,9l0 107c4,2 7,3 12,3 4,1 9,1 15,1 16,0 28,-5 36,-16 8,-11 12,-26 12,-48z"/>
  <path id="8" class="fil1" d="M3972 14543l0 -45c-11,1 -20,2 -27,3 -7,1 -14,2 -20,5 -6,2 -10,5 -13,9 -3,4 -5,10 -5,16 0,10 3,17 8,21 5,4 13,6 24,6 6,0 12,-1 18,-4 6,-3 11,-6 16,-11zm0 33c-5,4 -9,7 -12,10 -4,3 -8,6 -14,9 -6,3 -12,5 -17,7 -6,2 -13,2 -23,2 -19,0 -34,-6 -47,-19 -12,-13 -19,-29 -19,-48 0,-16 3,-29 9,-38 6,-10 15,-18 27,-23 12,-6 26,-10 43,-12 17,-2 34,-4 54,-5l0 -1c0,-12 -4,-20 -13,-24 -9,-4 -22,-7 -39,-7 -8,0 -17,1 -27,4 -10,3 -21,6 -31,11l-6 0 0 -51c7,-2 17,-4 32,-7 15,-3 29,-4 44,-4 37,0 63,6 80,18 17,12 25,31 25,56l0 145 -66 0 0 -23z"/>
  <path id="9" class="fil1" d="M4230 14449l-5 0c-3,-1 -6,-2 -11,-2 -5,0 -10,-1 -16,-1 -7,0 -14,1 -22,3 -8,2 -15,4 -22,7l0 142 -66 0 0 -213 66 0 0 30c3,-3 7,-6 13,-10 5,-4 10,-8 15,-10 5,-3 10,-5 17,-8 6,-2 12,-3 18,-3 2,0 5,0 7,0 3,0 5,0 7,1l0 63z"/>
  <path id="10" class="fil1" d="M4372 14543l0 -45c-11,1 -20,2 -27,3 -7,1 -14,2 -20,5 -6,2 -10,5 -13,9 -3,4 -5,10 -5,16 0,10 3,17 8,21 5,4 13,6 24,6 6,0 12,-1 18,-4 6,-3 11,-6 16,-11zm0 33c-5,4 -9,7 -12,10 -4,3 -8,6 -14,9 -6,3 -12,5 -17,7 -6,2 -13,2 -23,2 -19,0 -34,-6 -47,-19 -12,-13 -19,-29 -19,-48 0,-16 3,-29 9,-38 6,-10 15,-18 27,-23 12,-6 26,-10 43,-12 17,-2 34,-4 54,-5l0 -1c0,-12 -4,-20 -13,-24 -9,-4 -22,-7 -39,-7 -8,0 -17,1 -27,4 -10,3 -21,6 -31,11l-6 0 0 -51c7,-2 17,-4 32,-7 15,-3 29,-4 44,-4 37,0 63,6 80,18 17,12 25,31 25,56l0 145 -66 0 0 -23z"/>
  <path id="11" class="fil1" d="M4615 14531l0 -97c-3,-1 -7,-3 -12,-4 -5,-1 -10,-1 -14,-1 -16,0 -28,5 -36,15 -8,10 -12,25 -12,43 0,9 1,17 2,23 1,6 3,12 7,17 3,5 7,8 12,11 5,2 12,4 20,4 6,0 12,-1 18,-3 6,-2 11,-5 16,-9zm66 43c0,20 -3,36 -9,50 -6,14 -14,25 -23,32 -10,8 -22,13 -36,17 -14,3 -29,5 -46,5 -14,0 -28,-1 -40,-3 -13,-2 -24,-4 -33,-6l0 -53 8 0c3,1 7,3 12,4 4,2 9,3 14,4 6,1 11,3 16,3 5,1 11,1 16,1 11,0 21,-1 28,-4 8,-2 13,-6 17,-10 4,-4 6,-10 8,-16 1,-6 2,-14 2,-23l0 -4c-8,7 -16,12 -26,16 -10,4 -20,6 -30,6 -28,0 -49,-9 -64,-27 -15,-18 -23,-45 -23,-82 0,-17 2,-32 7,-45 5,-13 11,-25 19,-34 8,-9 17,-16 29,-21 11,-5 23,-7 35,-7 11,0 21,1 29,4 9,3 16,6 24,11l2 -10 64 0 0 188z"/>
  <path id="12" class="fil1" d="M4930 14599l-66 0 0 -24c-12,10 -22,17 -32,22 -10,5 -21,8 -34,8 -21,0 -38,-7 -49,-20 -12,-13 -18,-33 -18,-60l0 -138 66 0 0 105c0,11 0,20 1,27 1,7 2,13 4,18 2,4 5,8 9,10 4,2 10,3 18,3 5,0 10,-1 17,-3 6,-2 12,-5 18,-9l0 -151 66 0 0 213z"/>
  <path id="13" class="fil1" d="M5097 14543l0 -45c-11,1 -20,2 -27,3 -7,1 -14,2 -20,5 -6,2 -10,5 -13,9 -3,4 -5,10 -5,16 0,10 3,17 8,21 5,4 13,6 24,6 6,0 12,-1 18,-4 6,-3 11,-6 16,-11zm0 33c-5,4 -9,7 -12,10 -4,3 -8,6 -14,9 -6,3 -12,5 -17,7 -6,2 -13,2 -23,2 -19,0 -34,-6 -47,-19 -12,-13 -19,-29 -19,-48 0,-16 3,-29 9,-38 6,-10 15,-18 27,-23 12,-6 26,-10 43,-12 17,-2 34,-4 54,-5l0 -1c0,-12 -4,-20 -13,-24 -9,-4 -22,-7 -39,-7 -8,0 -17,1 -27,4 -10,3 -21,6 -31,11l-6 0 0 -51c7,-2 17,-4 32,-7 15,-3 29,-4 44,-4 37,0 63,6 80,18 17,12 25,31 25,56l0 145 -66 0 0 -23z"/>
  <path id="14" class="fil1" d="M5277 14605c-16,0 -30,-2 -44,-5 -14,-3 -25,-7 -35,-12l0 -56 6 0c3,2 7,5 11,8 4,3 10,6 17,9 6,3 13,5 21,7 8,2 16,3 25,3 9,0 18,-1 25,-4 7,-3 11,-8 11,-14 0,-5 -2,-9 -5,-11 -3,-3 -10,-5 -19,-7 -5,-1 -11,-3 -19,-4 -8,-1 -15,-3 -21,-5 -17,-5 -29,-13 -38,-23 -8,-10 -13,-24 -13,-40 0,-10 2,-18 7,-27 4,-8 11,-16 19,-22 8,-6 19,-12 31,-15 12,-4 27,-6 42,-6 15,0 29,1 41,4 13,3 23,7 32,11l0 54 -5 0c-2,-2 -6,-4 -11,-7 -5,-3 -10,-6 -14,-8 -6,-3 -12,-5 -19,-6 -7,-2 -14,-2 -21,-2 -10,0 -18,2 -24,5 -7,3 -10,8 -10,13 0,5 2,9 5,11 3,3 10,6 21,8 6,1 12,3 20,4 7,1 14,3 21,5 15,5 27,12 35,22 8,10 12,22 12,38 0,10 -2,19 -7,28 -5,9 -11,17 -20,23 -9,7 -20,12 -32,16 -12,4 -27,6 -44,6z"/>
  <path id="15" class="fil1" d="M5582 14304l-51 112 -42 0 30 -112 64 0zm-83 0l-51 112 -42 0 30 -112 64 0z"/>
  <line class="fil0 str0" x1="4598" y1="14897" x2="4598" y2= "17916" />
  <polyline class="fil0 str0" points="4598,17916 17457,17916 17457,14859 "/>
  <line class="fil0 str0" x1="11036" y1="17916" x2="11036" y2= "20469" />
  <ellipse class="fil0 str0" cx="11036" cy="21444" rx="2146" ry="995"/>
  <polygon class="fil1" points="10869,21328 10739,21328 10739,21386 10858,21386 10858,21445 10739,21445 10739,21577 10662,21577 10662,21269 10869,21269 "/>
  <polygon id="1" class="fil1" points="11062,21577 10896,21577 10896,21523 10940,21523 10940,21323 10896,21323 10896,21269 11062,21269 11062,21323 11018,21323 11018,21523 11062,21523 "/>
  <polygon id="2" class="fil1" points="11377,21577 11303,21577 11184,21362 11184,21577 11113,21577 11113,21269 11208,21269 11306,21446 11306,21269 11377,21269 "/>
 </g>
</svg>
